<svg width="54" height="59" viewBox="0 0 54 59" fill="none" xmlns="http://www.w3.org/2000/svg">
<path opacity="0.9" d="M24.3113 0.720947V11.2664H19.1662L29.4565 21.8119L39.7468 11.2664H34.6016V0.720947M1.1582 5.99367V11.2664H6.30335L15.5646 31.3028L11.963 37.63C11.7057 38.4209 11.4485 39.2119 11.4485 40.2664C11.4485 43.1664 13.7638 45.5391 16.5936 45.5391H47.4645V40.2664H17.6227C17.3654 40.2664 17.1081 40.0028 17.1081 39.7391V39.4755L19.4235 34.9937H38.4605C40.2613 34.9937 42.0621 33.9391 42.8339 32.3573L52.8669 13.9028L48.4935 11.2664L38.4605 29.7209H20.4525L9.64769 5.99367M16.5936 48.1755C13.7638 48.1755 11.4485 50.5482 11.4485 53.4482C11.4485 56.3482 13.7638 58.721 16.5936 58.721C19.4235 58.721 21.7388 56.3482 21.7388 53.4482C21.7388 50.5482 19.4235 48.1755 16.5936 48.1755ZM42.3193 48.1755C39.4895 48.1755 37.1742 50.5482 37.1742 53.4482C37.1742 56.3482 39.4895 58.721 42.3193 58.721C45.1492 58.721 47.4645 56.3482 47.4645 53.4482C47.4645 50.5482 45.1492 48.1755 42.3193 48.1755Z" fill="url(#paint0_linear_165_505)"/>
<defs>
<linearGradient id="paint0_linear_165_505" x1="34.3144" y1="4.37625" x2="77.3948" y2="28.5524" gradientUnits="userSpaceOnUse">
<stop stop-color="#E3EFFB"/>
<stop offset="1" stop-color="#86ECFA"/>
</linearGradient>
</defs>
</svg>
