<svg width="39" height="40" viewBox="0 0 39 40" fill="none" xmlns="http://www.w3.org/2000/svg">
<path fill-rule="evenodd" clip-rule="evenodd" d="M19.5141 39.3392C30.118 39.3392 38.7141 30.7431 38.7141 20.1392C38.7141 9.53534 30.118 0.939209 19.5141 0.939209C8.91021 0.939209 0.314087 9.53534 0.314087 20.1392C0.314087 30.7431 8.91021 39.3392 19.5141 39.3392ZM28.4111 18.4421L21.2111 11.2421C20.2739 10.3049 18.7543 10.3049 17.817 11.2421C16.8798 12.1794 16.8798 13.699 17.817 14.6363L20.92 17.7392H12.3141C10.9886 17.7392 9.91409 18.8137 9.91409 20.1392C9.91409 21.4647 10.9886 22.5392 12.3141 22.5392H20.92L17.817 25.6422C16.8798 26.5794 16.8798 28.099 17.817 29.0362C18.7543 29.9734 20.2739 29.9734 21.2111 29.0362L28.4111 21.8362C29.3483 20.899 29.3483 19.3794 28.4111 18.4421Z" fill="#4A5568"/>
</svg>
