<svg width="32" height="32" viewBox="0 0 32 32" fill="none" xmlns="http://www.w3.org/2000/svg">
<path d="M22.9874 23.5428C21.627 23.5428 20.5263 24.6742 20.5263 26.057C20.5263 27.4399 21.627 28.5713 22.9874 28.5713C24.3478 28.5713 25.4608 27.4399 25.4608 26.057C25.4608 24.6742 24.3478 23.5428 22.9874 23.5428ZM10.6202 23.5428C9.25985 23.5428 8.15918 24.6742 8.15918 26.057C8.15918 27.4399 9.25985 28.5713 10.6202 28.5713C11.9806 28.5713 13.0937 27.4399 13.0937 26.057C13.0937 24.6742 11.9806 23.5428 10.6202 23.5428ZM10.6202 19.7713L11.9806 17.257H21.1942C22.1217 17.257 22.9379 16.7416 23.3584 15.9622L28.8 5.94275H8.40652L7.24401 3.42847H3.19995V5.94275H5.67338L10.1256 15.4845L6.44014 22.2856H25.4608V19.7713H10.6202Z" fill="url(#paint0_linear_258_490)"/>
<defs>
<linearGradient id="paint0_linear_258_490" x1="18.1858" y1="4.13473" x2="33.5708" y2="27.5776" gradientUnits="userSpaceOnUse">
<stop stop-color="#0F5BA4"/>
<stop offset="1" stop-color="#07C0D9"/>
</linearGradient>
</defs>
</svg>
