<svg width="53" height="59" viewBox="0 0 53 59" fill="none" xmlns="http://www.w3.org/2000/svg">
<g clip-path="url(#clip0_160_747)">
<path d="M3.09613 2.77795L0 6.2442L9.63971 17.0363L14.4925 28.4921L7.94892 41.7917H31.7518L34.782 45.1842C34.028 45.7894 33.4649 46.6467 33.1736 47.6328C32.8824 48.6189 32.878 49.6831 33.1611 50.6722C33.4442 51.6613 34.0002 52.5244 34.7492 53.1373C35.4981 53.7503 36.4014 54.0815 37.3292 54.0834C38.8004 54.0834 40.0959 53.2721 40.8864 52.0184L47.1226 59L50.2187 55.5338L3.09613 2.77795ZM15.3708 36.875L17.7863 31.9584H22.9684L27.3601 36.875H15.3708ZM35.2431 31.8109H36.8461L47.6496 9.83337H15.6343L35.2431 31.8109ZM15.3708 44.25C12.9554 44.25 11.0011 46.4625 11.0011 49.1667C11.0011 51.8709 12.9554 54.0834 15.3708 54.0834C17.7863 54.0834 19.7625 51.8709 19.7625 49.1667C19.7625 46.4625 17.7863 44.25 15.3708 44.25Z" fill="url(#paint0_linear_160_747)"/>
</g>
<defs>
<linearGradient id="paint0_linear_160_747" x1="32.2009" y1="6.32121" x2="74.0019" y2="29.8239" gradientUnits="userSpaceOnUse">
<stop stop-color="#E3EFFB"/>
<stop offset="1" stop-color="#86ECFA"/>
</linearGradient>
<clipPath id="clip0_160_747">
<rect width="52.7" height="59" fill="white"/>
</clipPath>
</defs>
</svg>
