<svg width="17" height="17" viewBox="0 0 17 17" fill="none" xmlns="http://www.w3.org/2000/svg">
<g clip-path="url(#clip0_165_500)">
<path d="M8.50008 2.83329C11.6238 2.83329 14.1667 5.37621 14.1667 8.49996C14.1667 11.6237 11.6238 14.1666 8.50008 14.1666C5.37633 14.1666 2.83341 11.6237 2.83341 8.49996C2.83341 5.37621 5.37633 2.83329 8.50008 2.83329ZM8.50008 1.41663C4.59008 1.41663 1.41675 4.58996 1.41675 8.49996C1.41675 12.41 4.59008 15.5833 8.50008 15.5833C12.4101 15.5833 15.5834 12.41 15.5834 8.49996C15.5834 4.58996 12.4101 1.41663 8.50008 1.41663ZM8.50008 10.625L5.66675 7.79163H11.3334L8.50008 10.625Z" fill="url(#paint0_linear_165_500)"/>
</g>
<defs>
<linearGradient id="paint0_linear_165_500" x1="10.5006" y1="2.30945" x2="21.6161" y2="9.30631" gradientUnits="userSpaceOnUse">
<stop stop-color="#E3EFFB"/>
<stop offset="1" stop-color="#86ECFA"/>
</linearGradient>
<clipPath id="clip0_165_500">
<rect width="17" height="17" fill="white"/>
</clipPath>
</defs>
</svg>
