<svg width="48" height="49" viewBox="0 0 48 49" fill="none" xmlns="http://www.w3.org/2000/svg">
<path d="M24 30.5C27.3137 30.5 30 27.8137 30 24.5C30 21.1863 27.3137 18.5 24 18.5C20.6863 18.5 18 21.1863 18 24.5C18 27.8137 20.6863 30.5 24 30.5Z" fill="url(#paint0_linear_155_687)"/>
<path d="M46.0162 22.8688C43.5355 19.0325 40.3171 15.7738 36.7096 13.4441C32.7187 10.8641 28.3124 9.5 23.968 9.5C19.9818 9.5 16.0621 10.6391 12.3177 12.8853C8.49929 15.1756 5.03992 18.5216 2.03523 22.8294C1.69603 23.3162 1.50922 23.8929 1.49853 24.4862C1.48785 25.0795 1.65378 25.6625 1.97523 26.1613C4.45117 30.0359 7.63773 33.2994 11.189 35.5972C15.1874 38.1875 19.4905 39.5 23.968 39.5C28.3471 39.5 32.7627 38.1472 36.7368 35.5887C40.3424 33.2666 43.5543 29.9956 46.0255 26.1275C46.3359 25.6403 46.5 25.0744 46.4983 24.4968C46.4967 23.9191 46.3293 23.3541 46.0162 22.8688ZM23.9999 33.5C22.2199 33.5 20.4798 32.9722 18.9998 31.9832C17.5197 30.9943 16.3662 29.5887 15.685 27.9442C15.0038 26.2996 14.8256 24.49 15.1728 22.7442C15.5201 20.9984 16.3773 19.3947 17.636 18.136C18.8946 16.8774 20.4983 16.0202 22.2441 15.6729C23.9899 15.3257 25.7995 15.5039 27.4441 16.1851C29.0886 16.8663 30.4942 18.0198 31.4831 19.4999C32.4721 20.9799 32.9999 22.72 32.9999 24.5C32.9972 26.8861 32.0481 29.1737 30.3609 30.8609C28.6736 32.5482 26.386 33.4973 23.9999 33.5Z" fill="url(#paint1_linear_155_687)"/>
<defs>
<linearGradient id="paint0_linear_155_687" x1="25.6945" y1="19.2563" x2="35.1101" y2="25.183" gradientUnits="userSpaceOnUse">
<stop stop-color="#E3EFFB"/>
<stop offset="1" stop-color="#86ECFA"/>
</linearGradient>
<linearGradient id="paint1_linear_155_687" x1="30.3528" y1="11.3907" x2="56.4157" y2="35.9994" gradientUnits="userSpaceOnUse">
<stop stop-color="#E3EFFB"/>
<stop offset="1" stop-color="#86ECFA"/>
</linearGradient>
</defs>
</svg>
