<svg width="32" height="32" viewBox="0 0 32 32" fill="none" xmlns="http://www.w3.org/2000/svg">
<path d="M15.6092 7.05737C15.8592 7.30741 15.9996 7.64649 15.9996 8.00004C15.9996 8.35359 15.8592 8.69267 15.6092 8.94271L9.88521 14.6667H25.3332C25.6868 14.6667 26.026 14.8072 26.276 15.0572C26.5261 15.3073 26.6665 15.6464 26.6665 16C26.6665 16.3537 26.5261 16.6928 26.276 16.9429C26.026 17.1929 25.6868 17.3334 25.3332 17.3334H9.88521L15.6092 23.0574C15.8521 23.3088 15.9865 23.6456 15.9834 23.9952C15.9804 24.3448 15.8402 24.6793 15.593 24.9265C15.3458 25.1737 15.0113 25.3139 14.6617 25.3169C14.3121 25.32 13.9753 25.1856 13.7239 24.9427L5.72388 16.9427C5.47392 16.6927 5.3335 16.3536 5.3335 16C5.3335 15.6465 5.47392 15.3074 5.72388 15.0574L13.7239 7.05737C13.9739 6.80741 14.313 6.66699 14.6665 6.66699C15.0201 6.66699 15.3592 6.80741 15.6092 7.05737Z" fill="#0D0D0D"/>
</svg>
