<svg width="32" height="32" viewBox="0 0 32 32" fill="none" xmlns="http://www.w3.org/2000/svg">
<path d="M17.0165 4.92103C16.4551 4.35966 15.5449 4.35966 14.9835 4.92103L4.92103 14.9835C4.35966 15.5449 4.35966 16.4551 4.92103 17.0165C5.48242 17.5778 6.39259 17.5778 6.95397 17.0165L7.375 16.5954V26.0625C7.375 26.8564 8.0186 27.5 8.81251 27.5H11.6875C12.4814 27.5 13.125 26.8564 13.125 26.0625V23.1875C13.125 22.3936 13.7686 21.75 14.5625 21.75H17.4375C18.2315 21.75 18.875 22.3936 18.875 23.1875V26.0625C18.875 26.8564 19.5186 27.5 20.3125 27.5H23.1875C23.9815 27.5 24.625 26.8564 24.625 26.0625V16.5954L25.0461 17.0165C25.6074 17.5778 26.5176 17.5778 27.079 17.0165C27.6403 16.4551 27.6403 15.5449 27.079 14.9835L17.0165 4.92103Z" fill="url(#paint0_linear_155_750)"/>
<defs>
<linearGradient id="paint0_linear_155_750" x1="17.9638" y1="5.14607" x2="32.137" y2="26.3567" gradientUnits="userSpaceOnUse">
<stop stop-color="#0F5BA4"/>
<stop offset="1" stop-color="#07C0D9"/>
</linearGradient>
</defs>
</svg>
