<svg width="44" height="39" viewBox="0 0 44 39" fill="none" xmlns="http://www.w3.org/2000/svg">
<path d="M22.0018 3.22587C27.052 -1.22374 34.8564 -1.07605 39.7217 3.70691C44.5849 8.49199 44.7526 16.1127 40.2291 21.0834L21.9975 39L3.7701 21.0834C-0.753414 16.1127 -0.583566 8.47933 4.27749 3.70691C9.14715 -1.06972 16.9365 -1.23007 22.0018 3.22587ZM36.6774 6.68809C33.4524 3.51914 28.2495 3.39044 24.8741 6.36529L22.0039 8.89285L19.1316 6.3674C15.7454 3.38833 10.5532 3.51914 7.31969 6.69231C4.11625 9.83594 3.955 14.8679 6.90689 18.1929L21.9996 33.0271L37.0923 18.1951C40.0464 14.8679 39.8851 9.84227 36.6774 6.68809Z" fill="url(#paint0_linear_165_495)"/>
<defs>
<linearGradient id="paint0_linear_165_495" x1="28.0721" y1="2.45788" x2="59.8654" y2="24.5233" gradientUnits="userSpaceOnUse">
<stop stop-color="#E3EFFB"/>
<stop offset="1" stop-color="#86ECFA"/>
</linearGradient>
</defs>
</svg>
