<svg xmlns="http://www.w3.org/2000/svg" version="1.1" xmlns:xlink="http://www.w3.org/1999/xlink" xmlns:svgjs="http://svgjs.dev/svgjs" width="1000" height="202" viewBox="0 0 1000 202"><g transform="matrix(1,0,0,1,-0.6060539909071849,0.6182844272666017)"><svg viewBox="0 0 396 80" data-background-color="#ffffff" preserveAspectRatio="xMidYMid meet" height="202" width="1000" xmlns="http://www.w3.org/2000/svg" xmlns:xlink="http://www.w3.org/1999/xlink"><g id="tight-bounds" transform="matrix(1,0,0,1,0.23999738039924523,-0.2448651197095444)"><svg viewBox="0 0 395.52 80.4897302394191" height="80.4897302394191" width="395.52"><g><svg viewBox="0 0 519.2366812870073 105.66651599717447" height="80.4897302394191" width="395.52"><g transform="matrix(1,0,0,1,123.71668128700729,14.603693600188372)"><svg viewBox="0 0 395.52 76.45912879679773" height="76.45912879679773" width="395.52"><g><svg viewBox="0 0 395.52 76.45912879679773" height="76.45912879679773" width="395.52"><g><svg viewBox="0 0 395.52 76.45912879679773" height="76.45912879679773" width="395.52"><g transform="matrix(1,0,0,1,0,0)"><svg width="395.52" viewBox="2 -40.5 210.58999633789062 41.04999923706055" height="76.45912879679773" data-palette-color="#0f5ba4"><g class="undefined-text-0" data-fill-palette-color="primary" id="text-0"><path d="M5.95-3.5L5.95-33.4 2.2-34.05 2.2-37.15 9.75-37.15Q10.8-37.15 13-37.25L13-37.25Q15.9-37.45 18.25-37.45L18.25-37.45Q23.45-37.45 26.48-36.18 29.5-34.9 30.78-32.52 32.05-30.15 32.05-26.5L32.05-26.5Q32.05-20.2 28.13-16.7 24.2-13.2 17.25-13.2L17.25-13.2Q14.5-13.2 13.3-13.35L13.3-13.35 13.3-3.5 20-3 20 0 2 0 2-3 5.95-3.5ZM13.25-16.55Q14.4-16.3 17.15-16.3L17.15-16.3Q20.5-16.3 22.53-18.63 24.55-20.95 24.55-26.35L24.55-26.35Q24.55-30.55 22.73-32.48 20.9-34.4 17.15-34.4L17.15-34.4Q15.75-34.4 14.25-34.2L14.25-34.2Q13.55-34.1 13.25-34.1L13.25-34.1 13.25-16.55ZM41.25-32.35Q39.45-32.35 38.4-33.4 37.35-34.45 37.35-36.1L37.35-36.1Q37.35-38 38.55-39.25 39.75-40.5 41.75-40.5L41.75-40.5Q43.75-40.5 44.8-39.43 45.85-38.35 45.85-36.75L45.85-36.75Q45.85-34.75 44.65-33.55 43.45-32.35 41.3-32.35L41.3-32.35 41.25-32.35ZM38.6-3.45L38.6-23.05 35.05-24 35.05-27.35 44.2-28.45 44.3-28.45 45.7-27.45 45.7-3.4 49.05-3 49.05 0 35.1 0 35.1-3 38.6-3.45ZM52-13.75Q52-18.05 53.72-21.4 55.45-24.75 58.67-26.63 61.9-28.5 66.2-28.5L66.2-28.5Q68.2-28.5 69.65-28.2 71.1-27.9 72.9-27.4L72.9-27.4 74.35-27 74.05-18.45 69.7-18.45 68.45-23.95Q68.15-25.25 65.5-25.25L65.5-25.25Q62.7-25.25 61.12-22.8 59.55-20.35 59.5-15.15L59.5-15.15Q59.5-9.65 61.4-6.73 63.3-3.8 66.45-3.8L66.45-3.8Q70.25-3.8 73.45-5.85L73.45-5.85 74.6-3.25Q73.3-1.85 70.62-0.65 67.95 0.55 64.85 0.55L64.85 0.55Q58.45 0.55 55.22-3.4 52-7.35 52-13.75L52-13.75Z" fill="#0f5ba4" data-fill-palette-color="primary"></path><path d="M89.45 0.55Q86.75 0.55 84.6 0.1 82.45-0.35 79.8-1.1L79.8-1.1Q78.05-1.6 77.45-1.65L77.45-1.65 77.9-10.9 81.95-10.9 83.05-4.45Q83.7-3.75 85.38-3.2 87.05-2.65 89.2-2.65L89.2-2.65Q92.55-2.65 94.23-4.13 95.9-5.6 95.9-8.25L95.9-8.25Q95.9-10 94.9-11.28 93.9-12.55 92.15-13.58 90.4-14.6 87.35-15.95L87.35-15.95Q83.2-17.85 80.48-20.48 77.75-23.1 77.75-27.6L77.75-27.6Q77.75-30.4 79.2-32.68 80.65-34.95 83.53-36.27 86.4-37.6 90.55-37.6L90.55-37.6Q93-37.6 94.88-37.25 96.75-36.9 98.95-36.3L98.95-36.3Q100.25-35.95 100.9-35.85L100.9-35.85 100.6-27.1 96.6-27.1 95.55-33.25Q95.1-33.7 93.75-34.13 92.4-34.55 90.75-34.55L90.75-34.55Q87.75-34.55 86.23-33.18 84.7-31.8 84.7-29.5L84.7-29.5Q84.7-27.65 85.83-26.3 86.95-24.95 88.55-24.03 90.15-23.1 93.6-21.4L93.6-21.4Q96.4-20.05 98.4-18.75 100.4-17.45 101.85-15.38 103.3-13.3 103.3-10.5L103.3-10.5Q103.3-7.75 101.93-5.25 100.55-2.75 97.43-1.1 94.3 0.55 89.45 0.55L89.45 0.55ZM107-13.85Q107-18.55 108.87-21.85 110.75-25.15 113.9-26.83 117.05-28.5 120.75-28.5L120.75-28.5Q127.05-28.5 130.47-24.63 133.9-20.75 133.9-14.1L133.9-14.1Q133.9-9.35 132.02-6.03 130.15-2.7 127.02-1.07 123.9 0.55 120.15 0.55L120.15 0.55Q113.9 0.55 110.45-3.33 107-7.2 107-13.85L107-13.85ZM120.55-2.7Q126.2-2.7 126.2-13.6L126.2-13.6Q126.2-19.3 124.85-22.28 123.5-25.25 120.45-25.25L120.45-25.25Q114.65-25.25 114.65-14.35L114.65-14.35Q114.65-8.65 116.07-5.68 117.5-2.7 120.55-2.7L120.55-2.7ZM138.45 0L138.45-3 141.25-3.45 141.25-23.05 138.05-23.95 138.05-27.4 146.35-28.45 146.94-28.05 147.69-26.4 147.69-24.3Q149.35-25.9 152.42-27.13 155.5-28.35 157.75-28.35L157.75-28.35Q160.44-28.35 162.12-27.45 163.8-26.55 164.65-24.65L164.65-24.65Q166.3-26.15 169-27.25 171.69-28.35 174.3-28.35L174.3-28.35Q178.75-28.35 180.6-25.75 182.44-23.15 182.44-17.25L182.44-17.25 182.44-3.45 185.69-3 185.69 0 172.75 0 172.75-3 175.35-3.45 175.35-17.05Q175.35-20.95 174.42-22.53 173.5-24.1 170.9-24.1L170.9-24.1Q169.5-24.1 168.02-23.48 166.55-22.85 165.4-21.95L165.4-21.95Q165.75-20.05 165.75-17.2L165.75-17.2 165.75-3.45 168.85-3 168.85 0 155.8 0 155.8-3 158.55-3.45 158.55-17.2Q158.55-19.8 158.22-21.28 157.9-22.75 157-23.43 156.1-24.1 154.4-24.1L154.4-24.1Q152.8-24.1 151.22-23.38 149.65-22.65 148.4-21.65L148.4-21.65 148.4-3.45 151.35-3 151.35 0 138.45 0ZM201.69 0.55Q195.09 0.55 191.87-3.33 188.64-7.2 188.64-13.9L188.64-13.9Q188.64-18.4 190.32-21.7 191.99-25 195.04-26.75 198.09-28.5 202.09-28.5L202.09-28.5Q207.09-28.5 209.79-25.88 212.49-23.25 212.59-18.4L212.59-18.4Q212.59-15.1 212.19-13.5L212.19-13.5 195.94-13.5Q196.14-8.95 198.09-6.43 200.04-3.9 203.64-3.9L203.64-3.9Q205.59-3.9 207.67-4.55 209.74-5.2 210.94-6.1L210.94-6.1 212.19-3.35Q210.84-1.9 207.82-0.68 204.79 0.55 201.69 0.55L201.69 0.55ZM195.94-16.5L205.59-16.5Q205.69-17.9 205.69-18.65L205.69-18.65Q205.69-25.3 201.24-25.3L201.24-25.3Q198.79-25.3 197.44-23.35 196.09-21.4 195.94-16.5L195.94-16.5Z" fill="#0f5ba4" data-fill-palette-color="primary"></path></g></svg></g></svg></g></svg></g></svg></g><g><svg viewBox="0 0 105.66651599717447 105.66651599717447" height="105.66651599717447" width="105.66651599717447"><g><svg xmlns="http://www.w3.org/2000/svg" xmlns:xlink="http://www.w3.org/1999/xlink" version="1.1" x="0" y="0" viewBox="0 0 100 100" style="enable-background:new 0 0 100 100;" xml:space="preserve" height="105.66651599717447" width="105.66651599717447" class="icon-icon-0" data-fill-palette-color="accent" id="icon-0"><polygon points="25,75 25,50 37.5,37.5 50,50 75,25 100,50 100,75 " fill="#0f5ba4" data-fill-palette-color="accent"></polygon><polygon points="12.5,87.5 12.5,0 0,12.5 0,87.5 0,100 12.5,100 87.5,100 100,87.5 " fill="#0f5ba4" data-fill-palette-color="accent"></polygon></svg></g></svg></g></svg></g><defs></defs></svg><rect width="395.52" height="80.4897302394191" fill="none" stroke="none" visibility="hidden"></rect></g></svg></g></svg>