<svg width="20" height="20" viewBox="0 0 20 20" fill="none" xmlns="http://www.w3.org/2000/svg">
<path d="M8.33341 3.33344C7.00733 3.33344 5.73556 3.86022 4.79788 4.7979C3.8602 5.73559 3.33341 7.00736 3.33341 8.33344C3.33341 9.65952 3.8602 10.9313 4.79788 11.869C5.73556 12.8067 7.00733 13.3334 8.33341 13.3334C9.6595 13.3334 10.9313 12.8067 11.8689 11.869C12.8066 10.9313 13.3334 9.65952 13.3334 8.33344C13.3334 7.00736 12.8066 5.73559 11.8689 4.7979C10.9313 3.86022 9.6595 3.33344 8.33341 3.33344ZM1.66675 8.33344C1.6669 7.27249 1.92026 6.22689 2.40578 5.28356C2.8913 4.34022 3.59495 3.52638 4.45825 2.90967C5.32156 2.29297 6.31958 1.89122 7.36938 1.7378C8.41918 1.58438 9.49043 1.68373 10.4941 2.02758C11.4978 2.37144 12.4049 2.94988 13.1401 3.71483C13.8753 4.47977 14.4172 5.40913 14.721 6.42567C15.0248 7.4422 15.0815 8.51656 14.8866 9.55944C14.6916 10.6023 14.2506 11.5836 13.6001 12.4218L18.0892 16.9109C18.241 17.0681 18.325 17.2786 18.3231 17.4971C18.3212 17.7156 18.2336 17.9246 18.0791 18.0791C17.9246 18.2336 17.7156 18.3213 17.4971 18.3232C17.2786 18.3251 17.0681 18.2411 16.9109 18.0893L12.4217 13.6001C11.4363 14.3652 10.2559 14.8384 9.01489 14.9659C7.77384 15.0935 6.52191 14.8702 5.40145 14.3215C4.281 13.7728 3.33699 12.9208 2.67677 11.8622C2.01655 10.8036 1.66661 9.58102 1.66675 8.33344Z" fill="#1467B8" fill-opacity="0.7"/>
</svg>
